<svg width="300" height="300" xmlns="http://www.w3.org/2000/svg">
  <path fill="#0AB9E6"
    d="M 80,50
       h -40
       s -40,0,-40,40
       v 120
       s 0,40,40,40
       h 40
       z" />
  <circle fill="030303" cx="40" cy="105" r="20" />
  <rect fill="#030303" x="80" y="50" width="140" height="200" />
  <g fill="#c8c8c8">
    <path d="M 95,235
             v -20
             s 20,0,20,20
             z" />
    <path d="M 135,235
             s 0,-40,-40,-40
             v -20
             s 60,0,60,60
             z" />
    <path d="M 175,235
             s 0,-80,-80,-80
             v -20
             s 100,0,100,100
             z" />
  </g>
  <path fill="#FF3C28"
    d="M 220,50
       h 40
       s 40,0,40,40
       v 120
       s 0,40,-40,40
       h -40
       z" />
  <circle fill="#030303" cx="260" cy="155" r="20" />
</svg>
